# xmcd
#
# Track frame offsets: 
#        150
#        23190
#        50077
#        63172
#        80810
#        95985
#        200357
#        218380
#        235382
#
# Disc length: 3366 seconds
#
# Revision: 2
# Processed by: cddbd v1.5.2PL0 Copyright (c) Steve Scherf et al.
# Submitted via: ExactAudioCopyFreeDBPlugin 1.0
#
DISCID=7d0d2409
DTITLE=Canned Heat - The Boogie Assault - Live In Australia
DYEAR=1996
DGENRE=Blues
TTITLE0=On The Road Again
TTITLE1=Amphetamine Annie
TTITLE2=Going Up The Country
TTITLE3=Lets Work Together
TTITLE4=Kings Of The Boogie
TTITLE5=Refried Hockey Boogie
TTITLE6=Hell's On Down The Line
TTITLE7=Chicken Shack Boogie
TTITLE8=So Long
EXTD=
EXTT0=
EXTT1=
EXTT2=
EXTT3=
EXTT4=
EXTT5=
EXTT6=
EXTT7=
EXTT8=
PLAYORDER=
